<svg width="800" height="500" viewBox="0 0 800 500" fill="none" xmlns="http://www.w3.org/2000/svg">
  <!-- Laptop base -->
  <rect x="100" y="400" width="600" height="20" rx="5" fill="#2a2a2a"/>
  
  <!-- Laptop body -->
  <rect x="150" y="100" width="500" height="300" rx="10" fill="#2a2a2a"/>
  <rect x="160" y="110" width="480" height="280" rx="5" fill="#ffffff"/>
  
  <!-- Screen content - Simplified UI -->
  <!-- Header -->
  <rect x="160" y="110" width="480" height="50" fill="#f5f5f5"/>
  <circle cx="600" cy="135" r="15" fill="#7e57c2"/>
  <rect x="180" y="125" width="120" height="20" rx="3" fill="#7e57c2"/>
  
  <!-- Sidebar -->
  <rect x="160" y="160" width="80" height="230" fill="#f9f9f9"/>
  <rect x="175" y="180" width="50" height="10" rx="2" fill="#7e57c2"/>
  <rect x="175" y="210" width="50" height="10" rx="2" fill="#cccccc"/>
  <rect x="175" y="240" width="50" height="10" rx="2" fill="#cccccc"/>
  <rect x="175" y="270" width="50" height="10" rx="2" fill="#cccccc"/>
  <rect x="175" y="300" width="50" height="10" rx="2" fill="#cccccc"/>
  
  <!-- Main content -->
  <rect x="260" y="180" width="360" height="40" rx="5" fill="#f0f0f0"/>
  <rect x="270" y="190" width="200" height="20" rx="3" fill="#333333"/>
  <rect x="590" y="190" width="20" height="20" rx="3" fill="#4caf50"/>
  
  <rect x="260" y="230" width="360" height="40" rx="5" fill="#f0f0f0"/>
  <rect x="270" y="240" width="200" height="20" rx="3" fill="#333333"/>
  <rect x="590" y="240" width="20" height="20" rx="3" fill="#ff9800"/>
  
  <rect x="260" y="280" width="360" height="40" rx="5" fill="#f0f0f0"/>
  <rect x="270" y="290" width="200" height="20" rx="3" fill="#333333"/>
  <rect x="590" y="290" width="20" height="20" rx="3" fill="#f44336"/>
  
  <rect x="260" y="330" width="360" height="40" rx="5" fill="#f0f0f0"/>
  <rect x="270" y="340" width="200" height="20" rx="3" fill="#333333"/>
  <rect x="590" y="340" width="20" height="20" rx="3" fill="#2196f3"/>
  
  <!-- Add button -->
  <circle cx="590" cy="380" r="20" fill="#7e57c2"/>
  <rect x="580" y="378" width="20" height="4" rx="2" fill="white"/>
  <rect x="588" y="370" width="4" height="20" rx="2" fill="white"/>
</svg> 